# Blender 4.0.1
# www.blender.org
mtllib body.mtl
o Body
v -1.688810 0.940389 2.874914
v -1.688810 1.322703 2.234452
v 1.641221 1.322703 2.234452
v 1.641221 0.940389 2.874914
v -1.688810 0.599553 2.234452
v -1.688810 0.981867 2.874914
v 1.641221 0.981867 2.874914
v 1.641221 0.599553 2.234452
v -1.688810 1.322703 -2.123367
v -1.688810 1.078624 -2.532255
v 1.641221 1.078624 -2.532255
v 1.641221 1.322703 -2.123367
v -1.688810 0.843632 -2.532255
v -1.688810 0.599553 -2.123367
v 1.641221 0.599553 -2.123367
v 1.641221 0.843632 -2.532255
v -1.747357 1.377997 2.272820
v -1.747357 0.963293 2.967544
v -1.747357 0.958964 2.967544
v -1.747357 0.544259 2.272820
v -1.747357 1.101528 -2.624885
v -1.747357 1.377997 -2.161736
v -1.747357 0.544259 -2.161736
v -1.747357 0.820729 -2.624885
v 1.699767 0.963293 2.967544
v 1.699767 1.377997 2.272820
v 1.699767 0.544259 2.272820
v 1.699767 0.958964 2.967544
v 1.699767 1.377997 -2.161736
v 1.699767 1.101528 -2.624885
v 1.699767 0.820729 -2.624885
v 1.699767 0.544259 -2.161736
v -1.747357 1.377997 2.272820
v -1.747357 0.963293 2.967544
v -1.747357 0.958964 2.967544
v -1.747357 0.544259 2.272820
v -1.747357 1.101528 -2.624885
v -1.747357 1.377997 -2.161736
v -1.747357 0.544259 -2.161736
v -1.747357 0.820729 -2.624885
vn -0.0000 1.0000 -0.0000
vn -0.0000 -0.0000 1.0000
vn -0.0000 0.8587 0.5126
vn 1.0000 -0.0000 -0.0000
vn -0.0000 -0.8587 0.5126
vn -1.0000 -0.0000 -0.0000
vn -0.0000 0.8587 -0.5126
vn -0.0000 -0.0000 -1.0000
vn -0.0000 -0.8587 -0.5126
vn -0.0000 -1.0000 -0.0000
vn 0.7537 -0.5643 -0.3369
vn 0.7537 0.5643 -0.3369
vn -0.8453 -0.0000 0.5343
vn 0.7537 -0.5643 0.3369
vn 0.6866 -0.7270 -0.0000
vn 0.7537 0.5643 0.3369
vn 0.6866 0.7270 -0.0000
vn 0.8453 -0.0000 0.5343
vn -0.7537 -0.5643 -0.3369
vn -0.7537 0.5643 -0.3369
vn -0.7537 -0.5643 0.3369
vn -0.6866 -0.7270 -0.0000
vn -0.7537 0.5643 0.3369
vn -0.6866 0.7270 -0.0000
vt 0.625000 0.520704
vt 0.875000 0.520704
vt 0.875000 0.718944
vt 0.625000 0.718944
vt 0.499351 0.750000
vt 0.500649 0.750000
vt 0.500649 1.000000
vt 0.499351 1.000000
vt 0.625000 0.750000
vt 0.625000 1.000000
vt 0.391580 0.522419
vt 0.464768 0.504141
vt 0.535232 0.504141
vt 0.608420 0.522419
vt 0.608420 0.717228
vt 0.493781 0.745859
vt 0.506219 0.745859
vt 0.391580 0.717228
vt 0.125000 0.718944
vt 0.375000 0.718944
vt 0.375000 0.750000
vt 0.125000 0.750000
vt 0.391580 0.032772
vt 0.506219 0.004141
vt 0.493781 0.004141
vt 0.608420 0.032772
vt 0.608420 0.227581
vt 0.535232 0.245859
vt 0.464768 0.245859
vt 0.391580 0.227581
vt 0.625000 0.250000
vt 0.625000 0.500000
vt 0.542099 0.500000
vt 0.542099 0.250000
vt 0.457901 0.250000
vt 0.457901 0.500000
vt 0.375000 0.520704
vt 0.125000 0.520704
vt 0.125000 0.500000
vt 0.375000 0.500000
vt 0.625000 0.031056
vt 0.500649 0.000000
vt 0.499351 0.000000
vt 0.375000 0.031056
vt 0.000000 0.000000
vt 0.625000 0.229296
vt 0.375000 0.229296
vt 0.499351 0.750000
s 0
f 29/1/1 22/2/1 17/3/1 26/4/1
f 28/5/2 25/6/2 18/7/2 19/8/2
f 26/9/3 17/10/3 18/7/3 25/6/3
f 15/11/4 16/12/4 11/13/4 12/14/4 3/15/4 4/16/4 7/17/4 8/18/4
f 20/19/5 27/20/5 28/21/5 19/22/5
f 5/23/6 6/24/6 1/25/6 2/26/6 9/27/6 10/28/6 13/29/6 14/30/6
f 22/31/7 29/32/7 30/33/7 21/34/7
f 24/35/8 21/34/8 30/33/8 31/36/8
f 32/37/9 23/38/9 24/39/9 31/40/9
f 23/38/10 32/37/10 27/20/10 20/19/10
f 33/41/1 34/42/1 18/42/1 17/41/1
f 35/43/1 36/44/1 20/44/1 19/43/1
f 34/45/1 35/45/1 19/45/1 18/45/1
f 37/34/1 38/46/1 22/46/1 21/34/1
f 38/46/1 33/41/1 17/41/1 22/46/1
f 39/47/1 40/35/1 24/35/1 23/47/1
f 36/44/1 39/47/1 23/47/1 20/44/1
f 40/45/1 37/45/1 21/45/1 24/45/1
f 4/16/11 3/15/11 26/4/11 25/6/11
f 8/18/12 7/17/12 28/48/12 27/20/12
f 7/17/13 4/16/13 25/6/13 28/48/13
f 12/14/14 11/13/14 30/33/14 29/1/14
f 3/15/15 12/14/15 29/1/15 26/4/15
f 16/12/16 15/11/16 32/37/16 31/36/16
f 15/11/17 8/18/17 27/20/17 32/37/17
f 11/13/18 16/12/18 31/36/18 30/33/18
f 2/26/19 1/25/19 34/42/19 33/41/19
f 6/24/20 5/23/20 36/44/20 35/43/20
f 1/25/18 6/24/18 35/43/18 34/42/18
f 10/28/21 9/27/21 38/46/21 37/34/21
f 9/27/22 2/26/22 33/41/22 38/46/22
f 14/30/23 13/29/23 40/35/23 39/47/23
f 5/23/24 14/30/24 39/47/24 36/44/24
f 13/29/13 10/28/13 37/34/13 40/35/13
